<mxfile host="app.diagrams.net" modified="2024-07-05T10:37:06.771Z" agent="Mozilla/5.0 (Windows NT 10.0; Win64; x64) AppleWebKit/537.36 (KHTML, like Gecko) Chrome/126.0.0.0 Safari/537.36" version="24.6.4" etag="t7KuuKocdyNpEDf6aBf4" type="github">
  <diagram name="Page-1" id="eplGh3CDwwbbYenhzSSv">
    <mxGraphModel>
      <root>
        <mxCell id="0" />
        <mxCell id="1" parent="0" />
      </root>
    </mxGraphModel>
  </diagram>
</mxfile>
